HIERARCHY
ROOT Hips
{
    OFFSET   0.000000   0.000000   0.000000
    CHANNELS 6 Xposition Yposition Zposition Zrotation Xrotation Yrotation
    JOINT Chest
    {
        OFFSET   0.000000   8.007240   0.000000
        CHANNELS 3 Zrotation Xrotation Yrotation
        JOINT Chest2
        {
            OFFSET   0.000000  22.077100   0.000000
            CHANNELS 3 Zrotation Xrotation Yrotation
            JOINT Neck
            {
                OFFSET   0.000000  23.254800   0.000000
                CHANNELS 3 Zrotation Xrotation Yrotation
                JOINT Head
                {
                    OFFSET   0.000000  14.370000   1.956600
                    CHANNELS 3 Zrotation Xrotation Yrotation
                    End Site
                    {
                        OFFSET   0.000000  19.566000   0.000000
                    }
                }
            }
            JOINT LeftCollar
            {
                OFFSET   3.911900  19.017000  -0.467064
                CHANNELS 3 Zrotation Xrotation Yrotation
                JOINT LeftShoulder
                {
                    OFFSET  10.383700   0.000000   0.000000
                    CHANNELS 3 Zrotation Xrotation Yrotation
                    JOINT LeftElbow
                    {
                        OFFSET  26.662100   0.001476   0.000517
                        CHANNELS 3 Zrotation Xrotation Yrotation
                        JOINT LeftWrist
                        {
                            OFFSET  28.869000  -0.000025  -0.000106
                            CHANNELS 3 Zrotation Xrotation Yrotation
                            JOINT LeftFinger0
                            {
                                OFFSET   2.044660  -2.323460   3.252850
                                CHANNELS 3 Zrotation Xrotation Yrotation
                                JOINT LeftFinger01
                                {
                                    OFFSET   3.088130   0.000000   0.000000
                                    CHANNELS 3 Zrotation Xrotation Yrotation
                                    JOINT LeftFinger02
                                    {
                                        OFFSET   2.639460   0.000000   0.000000
                                        CHANNELS 3 Zrotation Xrotation Yrotation
                                        End Site
                                        {
                                            OFFSET   2.582190   0.000000   0.000000
                                        }
                                    }
                                }
                            }
                            JOINT LeftFinger1
                            {
                                OFFSET   8.364480   0.000000   3.252850
                                CHANNELS 3 Zrotation Xrotation Yrotation
                                JOINT LeftFinger11
                                {
                                    OFFSET   4.646930   0.000000   0.000000
                                    CHANNELS 3 Zrotation Xrotation Yrotation
                                    JOINT LeftFinger12
                                    {
                                        OFFSET   2.323460   0.000000   0.000000
                                        CHANNELS 3 Zrotation Xrotation Yrotation
                                        End Site
                                        {
                                            OFFSET   2.273050   0.000000   0.000000
                                        }
                                    }
                                }
                            }
                            JOINT LeftFinger2
                            {
                                OFFSET   8.364490   0.000015   1.078090
                                CHANNELS 3 Zrotation Xrotation Yrotation
                                JOINT LeftFinger21
                                {
                                    OFFSET   5.111620   0.000000   0.000000
                                    CHANNELS 3 Zrotation Xrotation Yrotation
                                    JOINT LeftFinger22
                                    {
                                        OFFSET   2.788160   0.000016   0.000000
                                        CHANNELS 3 Zrotation Xrotation Yrotation
                                        End Site
                                        {
                                            OFFSET   2.727660   0.000000   0.000000
                                        }
                                    }
                                }
                            }
                            JOINT LeftFinger3
                            {
                                OFFSET   7.899780   0.000017  -1.078090
                                CHANNELS 3 Zrotation Xrotation Yrotation
                                JOINT LeftFinger31
                                {
                                    OFFSET   4.646930   0.000000   0.000000
                                    CHANNELS 3 Zrotation Xrotation Yrotation
                                    JOINT LeftFinger32
                                    {
                                        OFFSET   2.323470   0.000000   0.000000
                                        CHANNELS 3 Zrotation Xrotation Yrotation
                                        End Site
                                        {
                                            OFFSET   2.273050   0.000000   0.000000
                                        }
                                    }
                                }
                            }
                            JOINT LeftFinger4
                            {
                                OFFSET   7.435090   0.000000  -3.252850
                                CHANNELS 3 Zrotation Xrotation Yrotation
                                JOINT LeftFinger41
                                {
                                    OFFSET   3.717550   0.000000   0.000000
                                    CHANNELS 3 Zrotation Xrotation Yrotation
                                    JOINT LeftFinger42
                                    {
                                        OFFSET   1.858770   0.000000   0.000000
                                        CHANNELS 3 Zrotation Xrotation Yrotation
                                        End Site
                                        {
                                            OFFSET   1.818440   0.000000   0.000000
                                        }
                                    }
                                }
                            }
                        }
                    }
                }
            }
            JOINT RightCollar
            {
                OFFSET  -3.911900  19.017000  -0.467063
                CHANNELS 3 Zrotation Xrotation Yrotation
                JOINT RightShoulder
                {
                    OFFSET -10.383700   0.000019   0.000000
                    CHANNELS 3 Zrotation Xrotation Yrotation
                    JOINT RightElbow
                    {
                        OFFSET -26.662100   0.001175   0.000102
                        CHANNELS 3 Zrotation Xrotation Yrotation
                        JOINT RightWrist
                        {
                            OFFSET -28.869000   0.000016  -0.000079
                            CHANNELS 3 Zrotation Xrotation Yrotation
                            JOINT RightFinger0
                            {
                                OFFSET  -2.044660  -2.323490   3.252850
                                CHANNELS 3 Zrotation Xrotation Yrotation
                                JOINT RightFinger01
                                {
                                    OFFSET  -3.088140   0.000000   0.000000
                                    CHANNELS 3 Zrotation Xrotation Yrotation
                                    JOINT RightFinger02
                                    {
                                        OFFSET  -2.639460   0.000000   0.000000
                                        CHANNELS 3 Zrotation Xrotation Yrotation
                                        End Site
                                        {
                                            OFFSET  -2.582190   0.000000   0.000000
                                        }
                                    }
                                }
                            }
                            JOINT RightFinger1
                            {
                                OFFSET  -8.364480   0.000000   3.252850
                                CHANNELS 3 Zrotation Xrotation Yrotation
                                JOINT RightFinger11
                                {
                                    OFFSET  -4.646930   0.000000   0.000000
                                    CHANNELS 3 Zrotation Xrotation Yrotation
                                    JOINT RightFinger12
                                    {
                                        OFFSET  -2.323470   0.000000   0.000000
                                        CHANNELS 3 Zrotation Xrotation Yrotation
                                        End Site
                                        {
                                            OFFSET  -2.273050   0.000000   0.000000
                                        }
                                    }
                                }
                            }
                            JOINT RightFinger2
                            {
                                OFFSET  -8.364480   0.000000   1.078090
                                CHANNELS 3 Zrotation Xrotation Yrotation
                                JOINT RightFinger21
                                {
                                    OFFSET  -5.111620   0.000000   0.000000
                                    CHANNELS 3 Zrotation Xrotation Yrotation
                                    JOINT RightFinger22
                                    {
                                        OFFSET  -2.788160   0.000000   0.000000
                                        CHANNELS 3 Zrotation Xrotation Yrotation
                                        End Site
                                        {
                                            OFFSET  -2.727660   0.000000   0.000000
                                        }
                                    }
                                }
                            }
                            JOINT RightFinger3
                            {
                                OFFSET  -7.899780   0.000000  -1.078090
                                CHANNELS 3 Zrotation Xrotation Yrotation
                                JOINT RightFinger31
                                {
                                    OFFSET  -4.646930   0.000000   0.000000
                                    CHANNELS 3 Zrotation Xrotation Yrotation
                                    JOINT RightFinger32
                                    {
                                        OFFSET  -2.323470   0.000000   0.000000
                                        CHANNELS 3 Zrotation Xrotation Yrotation
                                        End Site
                                        {
                                            OFFSET  -2.273050   0.000000   0.000000
                                        }
                                    }
                                }
                            }
                            JOINT RightFinger4
                            {
                                OFFSET  -7.435090   0.000000  -3.252850
                                CHANNELS 3 Zrotation Xrotation Yrotation
                                JOINT RightFinger41
                                {
                                    OFFSET  -3.717550   0.000000   0.000000
                                    CHANNELS 3 Zrotation Xrotation Yrotation
                                    JOINT RightFinger42
                                    {
                                        OFFSET  -1.858770   0.000000   0.000000
                                        CHANNELS 3 Zrotation Xrotation Yrotation
                                        End Site
                                        {
                                            OFFSET  -1.818440   0.000000   0.000000
                                        }
                                    }
                                }
                            }
                        }
                    }
                }
            }
        }
    }
    JOINT LeftHip
    {
        OFFSET   9.783040   0.000000   0.000000
        CHANNELS 3 Zrotation Xrotation Yrotation
        JOINT LeftKnee
        {
            OFFSET   0.000032 -41.789100  -0.002222
            CHANNELS 3 Zrotation Xrotation Yrotation
            JOINT LeftAnkle
            {
                OFFSET   0.000087 -41.133200  -0.000135
                CHANNELS 3 Zrotation Xrotation Yrotation
                JOINT LeftToe
                {
                    OFFSET   0.000000  -6.358960  14.674500
                    CHANNELS 3 Zrotation Xrotation Yrotation
                    End Site
                    {
                        OFFSET   0.000000   0.000000   3.913200
                    }
                }
            }
        }
    }
    JOINT RightHip
    {
        OFFSET  -9.783040   0.000000   0.000000
        CHANNELS 3 Zrotation Xrotation Yrotation
        JOINT RightKnee
        {
            OFFSET   0.000047 -41.789100  -0.000896
            CHANNELS 3 Zrotation Xrotation Yrotation
            JOINT RightAnkle
            {
                OFFSET  -0.000117 -41.133300  -0.000248
                CHANNELS 3 Zrotation Xrotation Yrotation
                JOINT RightToe
                {
                    OFFSET   0.000000  -6.358970  14.674500
                    CHANNELS 3 Zrotation Xrotation Yrotation
                    End Site
                    {
                        OFFSET   0.000000   0.000000   3.913200
                    }
                }
            }
        }
    }
}
MOTION
Frames: 5
Frame Time:   0.016667
 -1.707270  89.453800   1.636650  -1.895820  -6.526100  -0.232032   1.677970   5.053630  -1.615230   3.519410  10.055500  -3.398760   0.694517  -1.821390   0.024486   1.143650  -3.695060   8.757940  -9.530440   2.637360  -0.567079 -67.457400  24.256200  -9.906720  -1.848400  -2.965270 -15.960500  10.740700  -7.134800  10.370900  39.765900  37.998600 -81.446900 -11.775100  -0.002919  -0.000579  -0.887564  -0.001443   0.000000 -55.970000  10.850600  -7.290120 -46.358000   0.002324   0.030514 -34.768500  -0.017700   0.015559 -24.939600   3.146900  -6.522300 -29.929500   0.030148   0.080019 -19.933000  -0.005420   0.055671 -26.851000  -0.499678   1.143260 -36.671000   0.018000   0.068108 -24.418400  -0.017638   0.042297 -48.031900  -4.124930   3.730090 -72.248800  -0.018870   0.017906 -48.117700  -0.017182  -0.001275   7.503520  -1.471670  11.879000  70.068000  18.844000   4.401070  -1.592710   2.652750  12.761900 -17.673200 -10.135900  -2.615720 -38.366900  38.826900  76.680500  33.709800   0.008698  -0.005696  11.854900   0.001513  -0.007854  46.785000   9.108450   8.459840  38.831000   0.004920  -0.002658  28.723200  -0.006265   0.000172  34.248500   2.813450   4.126570  51.524700   0.001754  -0.009526  34.315500  -0.000349  -0.004134  37.608700   2.535390   3.287410  54.165900   0.000546  -0.002410  36.541400   0.004230  -0.006927  48.541600  -3.958940  -3.490320  72.993500  -0.002394  -0.011054  48.613600   0.000090  -0.005186   3.708570  10.167400   3.716200   0.644248   0.432378  13.171000  -3.529520  -3.075560   4.694530  -0.000000   0.000000   0.000000   1.575420   6.096510  -6.591170   1.707600   3.650830  -6.854390  -4.467240  -3.503620   0.322529   0.000000   0.000000  -0.000000
 -1.697390  89.453800   1.643000  -1.898360  -6.529900  -0.254173   1.679680   5.053690  -1.615420   3.522840  10.055500  -3.399340   0.678998  -1.821410   0.024486   1.118080  -3.694980   8.784260  -9.538520   2.620830  -0.577660 -67.428900  24.290200  -9.923210  -1.793250  -2.903660 -16.037000  10.852300  -7.210450  10.391400  39.663600  37.638000 -80.935700 -11.402400  -0.002922  -0.000576  -0.701194  -0.001442  -0.000000 -53.645500  10.957900  -8.078220 -44.507000   0.002325   0.013619 -33.379900  -0.007481   0.007216 -26.404700   2.840770  -5.700720 -35.916400   0.020703   0.067922 -23.922600  -0.008334   0.045868 -28.345500  -0.836147   1.536790 -40.705600   0.015354   0.068079 -27.106800  -0.017619   0.042289 -48.950800  -4.308180   3.742620 -73.635000  -0.019013   0.018719 -49.040900  -0.017672  -0.001274   7.484950  -1.487940  11.892300  70.039300  18.839000   4.400950  -1.627680   2.655860  12.848200 -17.691000 -10.168600  -2.615990 -38.359800  38.828700  76.675400  33.719100   0.008694  -0.005691  11.859600   0.001512  -0.007856  46.807100   9.094760   8.440990  38.847000   0.004921  -0.002654  28.738900  -0.006263   0.000170  34.280300   2.813700   4.121420  51.572200   0.001754  -0.009520  34.347100  -0.000351  -0.004138  37.688900   2.543330   3.287620  54.172700   0.000547  -0.002404  36.568100   0.004233  -0.006932  48.568900  -3.969340  -3.496090  73.035300  -0.002395  -0.011053  48.641400   0.000089  -0.005186   3.707960  10.182000   3.716350   0.637952   0.429501  13.181800  -3.520860  -3.077370   4.704860  -0.000000   0.000000   0.000000   1.567690   6.100010  -6.586880   1.707790   3.654240  -6.854360  -4.457270  -3.503690   0.337770  -0.000000   0.000000   0.000000
 -1.681460  89.453800   1.654200  -1.902560  -6.536230  -0.290861   1.682630   5.053750  -1.615600   3.528770  10.055500  -3.399920   0.655897  -1.821430   0.024486   1.080000  -3.694870   8.820620  -9.550330   2.594280  -0.593411 -67.385700  24.323800  -9.947470  -1.699060  -2.841440 -16.159000  10.981500  -7.380450  10.414300  39.471300  36.944100 -80.053300 -10.998200  -0.002926  -0.000557  -0.499103  -0.001436   0.000000 -50.797200  11.062800  -8.866910 -42.266300   0.002329  -0.003275 -31.699700   0.002738  -0.001139 -29.123400   2.422920  -4.462850 -44.760600   0.007066   0.045392 -29.812400  -0.011249   0.028693 -31.117300  -1.439940   2.229580 -47.034700   0.010307   0.067877 -31.343500  -0.017484   0.042228 -50.571800  -4.725630   3.826360 -76.088500  -0.019157   0.019531 -50.674900  -0.018161  -0.001274   7.457470  -1.513000  11.912600  69.993100  18.827500   4.400720  -1.681960   2.662830  12.983000 -17.715600 -10.218000  -2.616400 -38.350100  38.832800  76.669100  33.735900   0.008687  -0.005686  11.868000   0.001511  -0.007857  46.845600   9.071520   8.408720  38.875000   0.004922  -0.002648  28.766300  -0.006261   0.000169  34.332100   2.813970   4.112840  51.649700   0.001754  -0.009513  34.398700  -0.000356  -0.004143  37.819700   2.556030   3.287850  54.183800   0.000548  -0.002394  36.611500   0.004237  -0.006937  48.613600  -3.986320  -3.505500  73.103500  -0.002397  -0.011053  48.686900   0.000085  -0.005186   3.707540  10.196600   3.716460   0.631604   0.426611  13.199800  -3.510920  -3.087940   4.721320  -0.000000   0.000000   0.000000   1.556250   6.106820  -6.579030   1.708290   3.660190  -6.854270  -4.441480  -3.504260   0.363328   0.000000   0.000000   0.000000
 -1.669930  89.451800   1.664350  -1.909640  -6.541340  -0.320481   1.685250   5.053630  -1.614080   3.533920  10.055200  -3.397040   0.643091  -1.821270   0.024490   1.058520  -3.694820   8.833010  -9.556200   2.575450  -0.603512 -67.358900  24.320700  -9.961710  -1.599860  -2.877840 -16.241100  10.903800  -7.617760  10.397400  39.175300  36.095000 -79.248600 -10.961500   0.007794   0.005126  -0.480764   0.003837   0.000000 -50.334500  10.862500  -8.787440 -41.886700   0.002339  -0.003260 -31.415400   0.002710  -0.001151 -32.540500   2.308220  -3.692300 -50.033200  -0.000259   0.015760 -33.291200  -0.006106   0.009003 -34.247400  -2.094400   3.032830 -52.178500   0.003349   0.030159 -34.773400  -0.008389   0.018653 -52.451500  -5.478440   4.156360 -78.971100  -0.009001   0.008754 -52.594700  -0.008302  -0.001267   7.442750  -1.528670  11.924400  69.959600  18.809500   4.401390  -1.717770   2.675390  13.073300 -17.724300 -10.248600  -2.616730 -38.340300  38.841300  76.678100  33.753200   0.008681  -0.005717  11.876600   0.001509  -0.007848  46.882600   9.051810   8.380200  38.902200   0.004920  -0.002646  28.793000  -0.006262   0.000170  34.373500   2.813940   4.106300  51.711600   0.001747  -0.009516  34.439900  -0.000365  -0.004142  37.924200   2.567110   3.287830  54.192400   0.000542  -0.002387  36.646100   0.004235  -0.006932  48.649400  -3.999940  -3.513030  73.158200  -0.002395  -0.011055  48.723400   0.000083  -0.005184   3.708200  10.192700   3.716240   0.625818   0.464779  13.214900  -3.507390  -3.121220   4.732920  -0.000000   0.000000   0.000000   1.549270   6.115270  -6.571170   1.709340   3.664680  -6.854030  -4.430610  -3.508340   0.384680  -0.000000   0.000000   0.000000
 -1.658850  89.448600   1.675410  -1.919290  -6.546370  -0.348405   1.687500   5.053390  -1.611360   3.538200  10.054700  -3.391800   0.633855  -1.821120   0.024495   1.043610  -3.694780   8.838310  -9.560250   2.557230  -0.608438 -67.330200  24.304900  -9.973030  -1.545790  -2.985770 -16.323700  10.663500  -7.890170  10.370900  39.027300  35.355000 -78.455700 -10.956300   0.018514   0.010793  -0.478144   0.009106   0.000000 -50.222600  10.534800  -8.660650 -41.746700   0.002351  -0.003234 -31.310900   0.002666  -0.001155 -35.056200   2.267200  -3.186000 -52.788100  -0.003391  -0.003441 -35.135200  -0.000964  -0.003314 -37.085500  -2.638020   3.537640 -55.027700  -0.001207  -0.007386 -36.804500   0.000591  -0.004870 -53.624900  -5.996650   4.415860 -80.786500   0.001155  -0.002024 -53.803800   0.001558  -0.001258   7.432250  -1.541950  11.934700  69.927700  18.792000   4.402010  -1.747180   2.683700  13.150600 -17.726600 -10.269900  -2.617100 -38.332400  38.849400  76.687200  33.770300   0.008678  -0.005747  11.885100   0.001505  -0.007839  46.916600   9.031970   8.352440  38.927100   0.004916  -0.002640  28.817300  -0.006263   0.000171  34.409100   2.813540   4.099020  51.764700   0.001736  -0.009522  34.475300  -0.000378  -0.004142  38.014000   2.573430   3.287500  54.199700   0.000536  -0.002379  36.675600   0.004233  -0.006925  48.680100  -4.011640  -3.519480  73.205200  -0.002393  -0.011058  48.754700   0.000073  -0.005181   3.708780  10.188800   3.716060   0.620021   0.502944  13.229000  -3.504620  -3.145700   4.743620   0.000000   0.000000  -0.000000   1.545720   6.122930  -6.562730   1.710650   3.671190  -6.853890  -4.420660  -3.515190   0.405060  -0.000000   0.000000   0.000000
